<?xml version="1.0" standalone="no"?><!DOCTYPE svg PUBLIC "-//W3C//DTD SVG 1.1//EN" "http://www.w3.org/Graphics/SVG/1.1/DTD/svg11.dtd"><svg class="icon" width="256px" height="256.00px" viewBox="0 0 1024 1024" version="1.1" xmlns="http://www.w3.org/2000/svg"><path d="M876.5 318.95H147.5c-47.25 0-85.5 38.7-85.5 85.5v428.4c0 47.25 38.7 85.5 85.5 85.5h729c47.25 0 85.5-38.7 85.5-85.5V404.9c0-47.25-38.7-85.95-85.5-85.95z m-32.4 150.3H179.9c-17.1 0-31.95-14.85-31.95-31.95s14.85-31.95 31.95-31.95h664.2c17.1 0 31.95 14.85 31.95 31.95 0.45 16.65-14.85 31.95-31.95 31.95z" fill="#5186f5" /><path d="M844.1 833.3H737c-17.1 0-31.95-14.85-31.95-31.95s14.85-31.95 31.95-31.95h107.1c17.1 0 31.95 14.85 31.95 31.95s-14.85 31.95-31.95 31.95z m-214.2 0h-107.1c-17.1 0-31.95-14.85-31.95-31.95s14.85-31.95 31.95-31.95h107.1c17.1 0 31.95 14.85 31.95 31.95s-14.85 31.95-31.95 31.95zM363.95 113.3c-42.75-19.35-94.5-2.25-113.4 40.5L173.6 318.95h632.25L363.95 113.3z" fill="#b3c8fe" /></svg>