<?xml version="1.0" standalone="no"?><!DOCTYPE svg PUBLIC "-//W3C//DTD SVG 1.1//EN" "http://www.w3.org/Graphics/SVG/1.1/DTD/svg11.dtd"><svg class="icon" width="256px" height="256.00px" viewBox="0 0 1024 1024" version="1.1" xmlns="http://www.w3.org/2000/svg"><path d="M780.763876 215.059266a414.946378 414.946378 0 1 0 0 586.415805 414.464722 414.464722 0 0 0 0-586.415805z m-33.234243 553.301976a363.890875 363.890875 0 0 1-259.973659 108.37253 368.587018 368.587018 0 0 1-259.97366-108.37253 363.890875 363.890875 0 0 1-108.37253-259.97366 368.587018 368.587018 0 0 1 108.37253-259.973659 363.890875 363.890875 0 0 1 259.97366-108.372531 367.864534 367.864534 0 0 1 259.973659 628.31985z m-52.50047-284.899342H509.712135V301.034807a24.925682 24.925682 0 0 0-49.73095 0v185.196614H280.082785a24.925682 24.925682 0 1 0 0 49.73095h185.317027V721.279398a24.925682 24.925682 0 0 0 49.73095 0V535.962371h185.437441a24.805268 24.805268 0 0 0 24.925682-24.925682c-5.53904-16.617121-16.617121-27.695202-30.464722-27.695203z" fill="#2C9CFA" /><path d="M487.555974 929.234243a420.605833 420.605833 0 0 1-297.42239-718.389464 420.003763 420.003763 0 0 1 594.844779 0 418.438382 418.438382 0 0 1 0 594.965193 417.956726 417.956726 0 0 1-297.422389 123.424271z m0-829.772343a408.56444 408.56444 0 0 0-288.993415 698.400753 407.962371 407.962371 0 0 0 577.98683 0 406.39699 406.39699 0 0 0 0-577.98683 406.035748 406.035748 0 0 0-288.993415-120.413923z m0 782.690499a376.413923 376.413923 0 0 1-264.308561-109.57667 371.356538 371.356538 0 0 1-109.57667-264.308561 376.413923 376.413923 0 0 1 109.57667-264.30856 371.356538 371.356538 0 0 1 264.308561-109.57667 373.88523 373.88523 0 0 1 264.30856 638.193791 371.356538 371.356538 0 0 1-264.30856 109.57667z m0-735.729069A359.315146 359.315146 0 0 0 231.796802 252.869238a364.252117 364.252117 0 0 0-106.084667 255.759172 359.43556 359.43556 0 0 0 106.084667 255.759172 364.252117 364.252117 0 0 0 255.759172 106.084666 359.43556 359.43556 0 0 0 255.759172-106.084666 361.843838 361.843838 0 0 0-255.759172-617.964252z m2.76952 605.682032a30.946378 30.946378 0 0 1-30.946378-30.946378V541.862653H280.082785a30.946378 30.946378 0 0 1 0-61.772343h173.75729V301.034807a30.946378 30.946378 0 0 1 61.772343 0v176.406397h179.416745c16.015052 0 29.501411 12.041392 36.124177 31.789276v1.926623A30.946378 30.946378 0 0 1 700.568203 541.862653H521.271872v179.416745a30.946378 30.946378 0 0 1-30.946378 30.946378zM280.082785 492.252117a18.904986 18.904986 0 1 0 0 37.689558h191.337723V721.279398a18.904986 18.904986 0 1 0 37.689558 0V529.821261h191.458137a18.664158 18.664158 0 0 0 18.904986-17.941675c-4.936971-14.208843-14.088429-22.637817-24.082784-22.637817H503.691439V301.034807a18.904986 18.904986 0 0 0-37.689558 0v191.21731z" fill="#2C9CFA" /></svg>