<?xml version="1.0" standalone="no"?><!DOCTYPE svg PUBLIC "-//W3C//DTD SVG 1.1//EN" "http://www.w3.org/Graphics/SVG/1.1/DTD/svg11.dtd"><svg class="icon" width="256px" height="256.00px" viewBox="0 0 1024 1024" version="1.1" xmlns="http://www.w3.org/2000/svg"><path d="M864 608a32 32 0 0 1 31.776 28.256L896 640v160a96 96 0 0 1-90.368 95.84L800 896H224a96 96 0 0 1-95.84-90.368L128 800v-160a32 32 0 0 1 63.776-3.744L192 640v160a32 32 0 0 0 28.256 31.776L224 832h576a32 32 0 0 0 31.776-28.256L832 800v-160a32 32 0 0 1 32-32z m-230.912-110.304l2.24 1.856 97.12 97.12a16 16 0 0 1 1.856 20.416l-1.856 2.24-97.12 97.12a16 16 0 0 1-27.072-8.448l-0.256-2.88V640h-288a32 32 0 0 1 0-64h288v-65.152a16 16 0 0 1 3.04-9.376l1.632-1.92a16 16 0 0 1 20.416-1.856z m-221.76-190.144a16 16 0 0 1 4.672 11.296V384h288a32 32 0 0 1 0 64h-288.032L416 513.152a16 16 0 0 1-27.328 11.296l-97.12-97.12a16 16 0 0 1 0-22.656l97.12-97.12a16 16 0 0 1 22.656 0zM800 128a96 96 0 0 1 95.84 90.368L896 224v160a32 32 0 0 1-63.776 3.744L832 384V224a32 32 0 0 0-28.256-31.776L800 192H224a32 32 0 0 0-31.776 28.256L192 224v160a32 32 0 0 1-63.776 3.744L128 384V224a96 96 0 0 1 90.368-95.84L224 128h576z" fill="#333333" /></svg>