<?xml version="1.0" standalone="no"?><!DOCTYPE svg PUBLIC "-//W3C//DTD SVG 1.1//EN" "http://www.w3.org/Graphics/SVG/1.1/DTD/svg11.dtd"><svg class="icon" width="256px" height="256.00px" viewBox="0 0 1024 1024" version="1.1" xmlns="http://www.w3.org/2000/svg"><path d="M919.04 579.072c40.448 0 73.728-32.768 73.728-73.728s-32.768-73.728-73.728-73.728c-25.6 0-48.128 12.8-61.44 32.768h-292.352c17.408-168.448 140.8-300.544 292.864-308.224 13.312 19.456 35.84 32.256 60.928 32.256 40.448 0 73.728-32.768 73.728-73.728S960 40.96 919.04 40.96c-25.6 0-48.128 13.312-61.44 33.28C660.992 81.92 501.248 250.88 483.328 464.384h-41.984c-10.752-52.224-41.472-99.328-86.528-130.048-18.944-12.8-44.032-7.68-56.832 11.264s-7.68 44.032 11.264 56.832C343.04 425.472 363.52 464.384 363.52 505.344c0 68.608-55.808 124.416-124.416 124.416s-124.416-55.808-124.416-124.416c0-27.136 8.704-53.248 25.088-74.752 13.824-17.92 10.24-43.52-8.192-57.344-17.92-13.824-43.52-10.24-57.344 8.192-27.136 35.84-41.472 78.848-41.472 123.904 0 113.664 92.672 206.336 206.336 206.336 99.84 0 182.784-71.168 201.728-165.376h41.472c17.92 211.456 174.592 378.88 368.128 390.144 11.264 26.112 37.376 44.544 67.584 44.544 40.448 0 73.728-32.768 73.728-73.728s-32.768-73.728-73.728-73.728c-19.968 0-38.4 8.192-51.712 20.992-156.16-2.56-284.16-136.704-302.08-308.224h292.352c14.336 19.968 36.864 32.768 62.464 32.768z" fill="#ffffff" /></svg>