<?xml version="1.0" standalone="no"?><!DOCTYPE svg PUBLIC "-//W3C//DTD SVG 1.1//EN" "http://www.w3.org/Graphics/SVG/1.1/DTD/svg11.dtd"><svg class="icon" width="256px" height="256.00px" viewBox="0 0 1024 1024" version="1.1" xmlns="http://www.w3.org/2000/svg"><path d="M741.568 107.072a225.92 225.92 0 0 1 48.384 1.92c17.088 4.48 32.896 12.992 46.144 24.896 4.352 4.096 8.192 8.768 11.328 13.888 8.704 12.672 14.464 27.136 16.768 42.368 0.96 7.552 1.152 15.168 0.768 22.784v260.224c0 20.224 2.944 47.424-5.696 59.328a31.36 31.36 0 0 1-51.584-5.12 219.84 219.84 0 0 1-2.816-60.288V280l-0.32-82.688a40.576 40.576 0 0 0-6.848-16c-11.072-15.296-28.096-14.208-54.016-14.208H251.2a127.68 127.68 0 0 0-31.808 1.28 37.056 37.056 0 0 0-18.88 12.672 80.064 80.064 0 0 0-7.36 47.936v563.328c0 22.4-1.536 38.912 8.32 51.392a35.84 35.84 0 0 0 18.944 11.776c6.912 0.96 13.888 1.216 20.864 0.704h167.552l22.976 0.512a29.568 29.568 0 0 1 22.976 18.624 31.04 31.04 0 0 1-15.936 39.04c-14.208 3.008-28.8 3.712-43.264 2.24H265.28a279.68 279.68 0 0 1-52.8-1.28 105.28 105.28 0 0 1-45.952-22.016 95.872 95.872 0 0 1-31.488-56.064 162.176 162.176 0 0 1-1.152-30.4V219.648a183.68 183.68 0 0 1 0.896-31.936c1.728-8.96 4.48-17.728 8.064-26.048a94.72 94.72 0 0 1 71.04-53.696l8.64-0.96h519.04zM291.84 305.152h395.776c9.728-0.896 19.648 0 29.184 2.432a27.52 27.52 0 0 1 14.144 14.08c2.752 5.248 3.84 11.2 3.072 17.024-4.224 26.24-19.968 27.328-49.728 27.328H315.2a105.6 105.6 0 0 1-31.936-1.664 31.872 31.872 0 0 1-15.168-45.056 29.44 29.44 0 0 1 15.104-12.416l8.64-1.728z m397.568 260.224a32 32 0 0 1 32 32v288a32 32 0 1 1-64 0v-288a32 32 0 0 1 32-32z m176 176a32 32 0 0 1-32 32h-288a32 32 0 1 1 0-64h288a32 32 0 0 1 32 32zM291.84 459.712h134.72c17.92 0 46.08-2.752 57.6 4.032 11.2 7.04 16.64 20.48 13.568 33.28-6.08 26.56-28.672 23.552-60.224 23.552H334.592c-17.664 0-45.44 2.688-56.64-4.096a32.704 32.704 0 0 1-6.848-46.976 29.056 29.056 0 0 1 13.696-8.576l7.04-1.216z" /></svg>