<?xml version="1.0" standalone="no"?><!DOCTYPE svg PUBLIC "-//W3C//DTD SVG 1.1//EN" "http://www.w3.org/Graphics/SVG/1.1/DTD/svg11.dtd"><svg class="icon" width="256px" height="221.41px" viewBox="0 0 1184 1024" version="1.1" xmlns="http://www.w3.org/2000/svg"><path d="M952.111221 624.856974c-42.702025-25.237377-88.922569-36.56061-138.821565-35.856906-68.579132 0.959596-130.505066 18.776096-182.707092 64.836708-3.518519 3.038721-9.595961 4.286196-14.649833 4.414142-69.666675 0.255892-139.461296-0.127946-209.12797 0.255892-34.16162 0.319865-63.973071 12.442762-87.867014 36.976435-31.282832 32.434347-30.611115 77.791255 1.375421 109.521898 25.077444 24.693606 55.848491 35.72896 90.841761 35.72896 58.53536 0 117.070721-0.415825 175.638068 0.127947 21.558925 0.319865 43.11785 1.919192 64.388896 4.829967 19.255894 2.622896 37.968018 7.868688 56.680141 18.904042-3.518519 1.119529-4.765994 1.6633-6.109428 1.791246-35.505055 3.870371-71.010109 9.915826-106.515164 10.907409-62.373745 1.791246-124.875435 0.543771-187.217193 0.415825-9.627947 0-19.383841-0.543771-28.595963-2.622896-55.848491-12.28283-96.663311-41.646469-113.616175-98.198665a42.158254 42.158254 0 0 0-10.555556-17.944446c-20.759262-20.40741-42.158254-40.143102-63.333341-60.134687-29.811451-28.148151-59.207078-56.712128-89.722233-84.028629-15.161618-13.498318-32.658253-24.117848-53.417514-28.276098-14.202022-2.878788-26.548825 0.287879-34.417512 12.442762-5.949496 9.084176-9.595961 19.447814-14.361955 29.36364v25.109431c0.671717 0.959596 1.599327 1.791246 1.759259 2.750842 6.397307 35.72896 22.390575 67.459604 44.589231 95.447822 41.614483 52.457918 84.988225 103.476443 127.018533 155.454563 33.202024 41.134685 76.44782 66.372062 126.474762 82.077451 76.735699 24.149834 155.774429 31.186872 235.580836 34.225593 32.946132 1.247475 64.516842-3.3266 95.00001-15.193604 46.924248-18.200339 93.976442-36.144785 139.909107-56.392263 58.695293-25.813134 118.478128-44.973069 183.666688-42.222227 2.175084 0.127946 4.350169-0.671717 6.6532-0.959596 0.287879-2.239057 0.543771-3.582492 0.543771-5.117846 0-88.698663 0.127946-177.525273-0.255892-266.223936-0.159933-4.126263-4.765994-9.915826-8.828284-12.410776z m189.360291-76.54378c-35.377108 1.087542-70.754217 0.255892-106.131326 0.255893-24.789565 0-36.464651 11.739059-36.46465 36.56061v366.37378c0 23.318185 11.930978 35.313135 35.377108 35.313135 35.377108 0.127946 70.754217-0.703704 106.131326 0.415825 19.671719 0.543771 34.449499-4.829967 43.11785-22.90236v-393.114523c-8.540405-17.528622-22.646467-23.446131-42.030308-22.90236z m-623.257648 36.272732c162.939413-0.287879 295.36367-131.720554 295.107778-292.836734C812.905817 131.048837 680.321627-0.127946 518.34181 0c-164.410793 0.127946-296.451213 131.176783-296.19532 293.956263 0.319865 159.996651 133.703719 291.045488 296.067374 290.629663z m160.348504-125.930991c-29.427613 30.483168-73.473072 29.523572-101.525265-2.079125-16.952864-19.191921-26.164986-44.269365-26.548824-73.920884 0.639731-25.525255 7.708755-50.346807 26.005053-71.042096 28.468017-32.434347 72.513476-33.265997 102.228968-2.239057 37.104381 38.639735 37.104381 110.513481-0.159932 149.281162zM598.723975 112.016848c8.828284-14.489901 9.915826-14.777779 25.077444-5.789563 5.565657 3.294613 11.387207 6.333334 16.664985 10.043772 2.590909 1.791246 4.478115 4.829967 6.781145 7.452863-1.887206 3.870371-3.102694 7.037038-4.861953 9.915826-69.282836 114.223919-138.533686 228.319892-207.816522 342.671757-5.437711 8.95623-11.099328 10.331651-19.639733 4.414142a128.745806 128.745806 0 0 0-16.824918-9.915827c-10.011786-4.861953-10.683503-11.067341-5.117846-20.151517 28.563976-46.508423 56.616168-93.272738 84.956239-139.87712 40.398995-66.340075 80.542097-132.552204 120.781159-198.764333z m-243.321577 15.705389c28.883842-31.85859 73.089234-31.85859 102.356914-0.415825 36.048826 38.895627 35.792933 108.978127-0.415825 147.617862-29.107747 31.154886-74.016844 30.483168-102.356914-1.375421-18.680137-21.111114-25.717175-46.220544-26.420879-71.457921 0.959596-29.107747 8.284513-53.801353 26.86869-74.368695z m-70.050513 551.76774c-35.82492-33.521889-71.457921-67.58755-108.050518-100.693614-15.321551-13.786197-33.202024-24.821552-54.057245-29.235694-14.937712-3.198654-25.10943 0.543771-33.106064 11.994951 68.739065 40.398995 115.631326 105.107756 176.085878 155.038739 6.397307-12.410776 12.474749-23.989902 19.127949-37.104382z m24.117848-23.861955c12.314816-7.452863 21.271046-12.954547 31.026939-18.872056-7.324917-7.037038-13.530305-13.274412-19.927612-19.191922-30.611115-28.148151-60.582499-57.255899-92.569034-83.868696-11.803032-9.915826-28.212124-15.193604-43.11785-20.40741-9.755893-3.454546-20.183504-1.535354-29.011788 8.12458 31.986536 15.449497 58.151522 37.104381 82.429303 60.966337 24.117848 23.861956 47.436032 48.683507 71.170042 73.249167z m298.626297-227.200363c13.274412 13.402358 29.427613 13.11448 42.158254-0.959596 10.971382-12.28283 14.361955-27.316501 15.289564-42.893945-0.511785-17.112797-4.478115-32.818186-16.24916-45.51684-12.18687-13.11448-27.796299-13.11448-40.526941-0.703704-21.814817 21.526939-22.230642 68.291254-0.671717 90.074085z m-181.107765-182.643119c12.058924-12.538722 15.865322-28.116165 16.537039-42.19024 0-19.57576-5.949496-36.56061-15.737376-46.892262-12.602695-13.530305-28.308084-13.786197-41.198658-0.83165-21.686871 21.782831-21.558925 68.291254 0.127946 89.946139 12.602695 12.794614 27.668353 12.954547 40.271049 0z" fill="#43CF5B" /></svg>