<?xml version="1.0" standalone="no"?><!DOCTYPE svg PUBLIC "-//W3C//DTD SVG 1.1//EN" "http://www.w3.org/Graphics/SVG/1.1/DTD/svg11.dtd"><svg class="icon" width="256px" height="256.00px" viewBox="0 0 1024 1024" version="1.1" xmlns="http://www.w3.org/2000/svg"><path d="M512 512m-512 0a512 512 0 1 0 1024 0 512 512 0 1 0-1024 0Z" fill="#FFB270" /><path d="M811.23328 546.52928c-9.58464-13.43488-31.45728-24.94464-76.71808 3.072a26.09152 26.09152 0 0 0-27.62752-31.8464 62.13632 62.13632 0 0 0-47.57504 19.5584c-20.33664-28.672-41.43104-25.31328-82.10432 0-15.72864 10.36288-29.16352 19.18976-38.35904 25.31328l-6.90176 4.21888a59.20768 59.20768 0 0 0 12.65664 0c57.15968 0 102.8096 0 102.8096 53.248 0 40.96-44.50304 52.55168-67.91168 53.248h-107.008a145.408 145.408 0 0 1-86.69184-44.11392 319.5904 319.5904 0 0 0 89.3952 20.72576l95.90784 3.82976s43.008 0 44.11392-29.53216-16.87552-29.53216-71.35232-30.3104a223.232 223.232 0 0 1-86.69184-23.01952s-43.7248-35.28704-57.15968-44.11392a98.59072 98.59072 0 0 0-112.39424-18.0224c-20.72576 8.82688-61.76768 19.18976-72.4992 38.35904a131.97312 131.97312 0 0 0 0 102.05184 101.66272 101.66272 0 0 0 24.1664 40.28416 49.152 49.152 0 0 0 49.47968 6.51264 56.38144 56.38144 0 0 1 52.18304 5.36576c24.94464 13.80352 101.66272 56.40192 120.832 66.37568a130.43712 130.43712 0 0 0 136.192-14.19264 1730.10944 1730.10944 0 0 0 191.75424-137.19552c29.16352-26.09152 36.06528-53.69856 23.40864-71.35232z m0 0" fill="#FFFFFF" /><path d="M497.4592 245.76a138.87488 138.87488 0 1 0 138.87488 138.11712A138.87488 138.87488 0 0 0 497.4592 245.76z m51.79392 142.70464h-38.35904v14.19264h27.2384a14.19264 14.19264 0 1 1 0 28.38528h-27.2384v21.87264a14.19264 14.19264 0 0 1-28.38528 0v-21.85216h-27.62752a14.19264 14.19264 0 1 1 0-28.38528h28.38528v-14.19264h-38.35904a14.19264 14.19264 0 0 1 0-28.38528h16.4864l-24.576-26.09152a14.19264 14.19264 0 0 1 19.94752-19.94752l40.69376 40.2432 40.67328-40.67328a14.19264 14.19264 0 0 1 19.94752 19.94752l-26.46016 27.2384h17.65376a14.19264 14.19264 0 1 1 0 28.38528z m0 0" fill="#FFFFFF" /></svg>