<?xml version="1.0" standalone="no"?><!DOCTYPE svg PUBLIC "-//W3C//DTD SVG 1.1//EN" "http://www.w3.org/Graphics/SVG/1.1/DTD/svg11.dtd"><svg class="icon" width="256px" height="256.00px" viewBox="0 0 1024 1024" version="1.1" xmlns="http://www.w3.org/2000/svg"><path d="M510.606222 422.4a57.400889 57.400889 0 0 0 50.432-26.993778 52.992 52.992 0 0 0 0-55.523555 57.400889 57.400889 0 0 0-50.432-26.965334c-30.862222 0.711111-55.495111 25.031111-55.495111 54.727111 0 29.724444 24.632889 54.044444 55.495111 54.755556zM455.111111 527.900444c0 30.236444 25.457778 54.755556 56.888889 54.755556s56.888889-24.519111 56.888889-54.755556c0-30.236444-25.457778-54.755556-56.888889-54.755555s-56.888889 24.519111-56.888889 54.755555zM512 742.912c31.431111 0 56.888889-24.519111 56.888889-54.755556 0-30.264889-25.457778-54.784-56.888889-54.784s-56.888889 24.519111-56.888889 54.784c0 30.236444 25.457778 54.755556 56.888889 54.755556z" fill="#2c2c2c" /></svg>