<?xml version="1.0" standalone="no"?><!DOCTYPE svg PUBLIC "-//W3C//DTD SVG 1.1//EN" "http://www.w3.org/Graphics/SVG/1.1/DTD/svg11.dtd"><svg t="1763963626607" class="icon" viewBox="0 0 1024 1024" version="1.1" xmlns="http://www.w3.org/2000/svg" p-id="1962" xmlns:xlink="http://www.w3.org/1999/xlink" width="200" height="200"><path d="M841.142857 950.857143a36.571429 36.571429 0 1 1 0 73.142857h-658.285714a36.571429 36.571429 0 1 1 0-73.142857h658.285714z m73.142857-950.857143A109.714286 109.714286 0 0 1 1024 109.714286V731.428571a109.714286 109.714286 0 0 1-109.714286 109.714286h-804.571428A109.714286 109.714286 0 0 1 0 731.428571V109.714286A109.714286 109.714286 0 0 1 109.714286 0h804.571428z m0 73.142857h-804.571428a36.571429 36.571429 0 0 0-36.571429 36.571429V731.428571a36.571429 36.571429 0 0 0 36.571429 36.571429h804.571428a36.571429 36.571429 0 0 0 36.571429-36.571429V109.714286a36.571429 36.571429 0 0 0-36.571429-36.571429z m-120.539428 189.659429a36.571429 36.571429 0 0 1 51.712 51.712L564.662857 595.236571a36.571429 36.571429 0 0 1-51.712 0L367.908571 450.194286 222.793143 595.236571a36.571429 36.571429 0 0 1-51.712-51.712l170.934857-170.934857a36.571429 36.571429 0 0 1 51.712 0l145.115429 145.115429z" fill="#ffffff" p-id="1963"></path></svg>