<?xml version="1.0" standalone="no"?><!DOCTYPE svg PUBLIC "-//W3C//DTD SVG 1.1//EN" "http://www.w3.org/Graphics/SVG/1.1/DTD/svg11.dtd"><svg class="icon" width="256px" height="256.00px" viewBox="0 0 1024 1024" version="1.1" xmlns="http://www.w3.org/2000/svg"><path d="M512 512m-512 0a512 512 0 1 0 1024 0 512 512 0 1 0-1024 0Z" fill="#5BB953" /><path d="M563.048296 265.481481h-107.311407c-13.160296 0-23.684741 11.794963-23.684741 26.358519 0 14.620444 10.543407 26.453333 23.703704 26.453333h107.956148c12.496593 0 23.04-11.832889 23.04-26.43437 0-14.601481-10.524444-26.377481-23.703704-26.377482z m116.508445 17.59763h-53.43763a47.407407 47.407407 0 0 1 0.853333 8.779852c0.018963 22.186667-15.966815 44.032-34.986666 44.032h-164.162371c-20.005926 0-36.02963-21.845333-36.029629-44.032 0.018963-2.958222 0.341333-5.878519 0.891259-8.779852h-54.08237c-43.482074 0-54.158222 24.841481-54.158223 60.624593V698.405926c0 38.456889 15.303111 59.979852 57.438815 59.979852h334.392889c42.135704 0 62.615704-16.877037 62.615704-59.960889V343.703704c0-35.802074-19.152593-60.624593-59.335111-60.624593z m-54.897778 350.189037H392.286815c-8.571259 0-17.104593-10.581333-17.104593-19.228444 0-8.609185 7.224889-15.985778 15.796148-15.985778h231.708445c8.552296 0 15.796148 6.712889 16.440889 15.985778 0 8.647111-5.916444 19.228444-14.468741 19.228444z m0.948148-93.904592H393.234963c-8.571259 0-14.032593-9.291852-14.032593-17.92 0-8.647111 7.243852-17.294222 15.815111-17.294223H626.725926c8.552296 0 15.796148 8.00237 16.440889 17.294223 0 8.628148-9.02637 17.92-17.559704 17.92z m0-96.464593H393.234963c-8.571259 0-14.032593-9.272889-14.032593-17.92 0-8.628148 7.243852-17.275259 15.815111-17.275259H626.725926c8.552296 0 15.796148 8.00237 16.440889 17.275259 0 8.647111-9.02637 17.92-17.559704 17.92z" fill="#FFFFFF" /></svg>