<?xml version="1.0" standalone="no"?><!DOCTYPE svg PUBLIC "-//W3C//DTD SVG 1.1//EN" "http://www.w3.org/Graphics/SVG/1.1/DTD/svg11.dtd"><svg class="icon" width="256px" height="256.00px" viewBox="0 0 1024 1024" version="1.1" xmlns="http://www.w3.org/2000/svg"><path d="M512 64a448 448 0 1 0 448 448A448 448 0 0 0 512 64z m271.573333 719.573333A384 384 0 1 1 896 512a381.44 381.44 0 0 1-112.426667 271.573333z" fill="#95BB3D" /><path d="M640 544a96 96 0 1 0 96 96 96 96 0 0 0-96-96z m0 128a32 32 0 1 1 32-32 32 32 0 0 1-32 32zM358.826667 710.613333l352-352a32.213333 32.213333 0 0 0-45.44-45.44l-352 352a32.213333 32.213333 0 0 0 45.44 45.44zM384 480a96 96 0 1 0-96-96 96 96 0 0 0 96 96z m0-128a32 32 0 1 1-32 32 32 32 0 0 1 32-32z" fill="#95BB3D" /></svg>