<?xml version="1.0" standalone="no"?><!DOCTYPE svg PUBLIC "-//W3C//DTD SVG 1.1//EN" "http://www.w3.org/Graphics/SVG/1.1/DTD/svg11.dtd"><svg class="icon" width="256px" height="256.00px" viewBox="0 0 1024 1024" version="1.1" xmlns="http://www.w3.org/2000/svg"><path d="M756.28032 887.239111H64.795876v-83.114667h691.484444v-174.819555l70.087111-41.813333c0 167.310222-0.398222 277.959111-1.137778 331.889777-0.853333 53.930667-36.977778 88.576-108.373333 103.879111-371.712 0-581.916444 0.227556-630.556444 0.739556-48.696889 0.455111-76.515556-30.321778-83.456-92.501333-2.787556-186.197333-3.470222-303.786667-2.104889-352.654223 1.365333-48.924444 29.923556-77.653333 85.560889-86.300444 204.401778 0.568889 304.355556 0.568889 299.804444 0-4.551111-0.568889-33.109333 21.162667-85.617778 65.194667-102.855111 0-163.498667-1.592889-181.987555-4.721778-18.432-3.128889-35.214222 5.518222-50.346667 25.827555-3.982222 195.868444-5.006222 309.361778-3.015111 340.536889 2.048 31.175111 13.425778 45.681778 34.247111 43.463111 385.308444 0 591.075556-1.251556 617.472-3.697777 26.339556-2.446222 39.480889-11.662222 39.424-27.648v-44.259556zM216.518542 460.231111c19.342222-51.655111 34.360889-87.608889 45.112889-107.861333C292.749653 293.546667 324.834987 256 333.425209 243.029333c19.569778-29.468444 253.553778-70.144 310.442667-78.791111 37.944889-5.745778 116.337778-41.301333 235.235555-106.552889 10.638222-6.314667 39.651556 25.6 86.869333 95.800889 47.274667 70.200889 65.706667 126.976 55.239112 170.382222-67.356444 29.013333-111.900444 65.251556-133.575112 108.828445-32.540444 65.251556-47.217778 96.312889-76.8 123.050667-19.740444 17.806222-81.180444 34.929778-184.32 51.370666-26.055111 15.075556-47.104 29.582222-63.146666 43.52-24.007111 20.935111-274.830222 158.72-278.983111 27.192889-4.152889-131.527111 176.696889-185.116444 200.931555-195.299555 16.156444-6.769778 42.211556-27.648 78.108445-62.748445-25.315556-34.133333-41.813333-47.559111-49.550223-40.448-7.793778 7.111111-38.968889 12.515556-93.582222 16.042667L374.954098 460.231111H216.518542z m539.761778 427.008v-83.114667 83.057778z" fill="#d81e06" /></svg>