<?xml version="1.0" standalone="no"?><!DOCTYPE svg PUBLIC "-//W3C//DTD SVG 1.1//EN" "http://www.w3.org/Graphics/SVG/1.1/DTD/svg11.dtd"><svg t="1764556991519" class="icon" viewBox="0 0 1024 1024" version="1.1" xmlns="http://www.w3.org/2000/svg" p-id="5485" xmlns:xlink="http://www.w3.org/1999/xlink" width="256" height="256"><path d="M928 383.1c0-7.6-6.2-13.8-13.8-13.8-4.5 0-8.2 2.2-10.8 5.5l-0.2-0.1-59.5 89.3c-4.2 6.3-12.7 8-19 3.9l-95.6-59-0.1 0.1c-2-1.1-4.2-1.9-6.6-1.9-7.6 0-13.8 6.2-13.8 13.8 0 4.5 2.3 8.3 5.7 10.9l-0.1 0.2 107.1 66.4c12.7 8.2 29.7 4.7 38.1-7.9l67-100.6-0.2-0.2c0.9-1.9 1.8-4.1 1.8-6.6z" fill="#3259CE" p-id="5486"></path><path d="M462.3 153.5c187.9 0 342.3 144.8 358.2 328.6h27.7c-16-199.1-182.7-356.3-385.9-356.3-213.6 0-387.5 173.8-387.5 387.5s173.8 387.5 387.5 387.5c139.1 0 261.1-74.1 329.4-184.6 0.1-0.1 0-0.2 0-0.2 0.9-1.8 1.4-3.7 1.4-5.9 0-7.6-6.2-13.8-13.8-13.8-5.1 0-9.3 2.9-11.7 7l-0.2-0.1C703.8 805 591 873.1 462.3 873.1c-198.4 0-359.8-161.4-359.8-359.8S264 153.5 462.3 153.5z" fill="#3259CE" p-id="5487"></path></svg>