<?xml version="1.0" standalone="no"?><!DOCTYPE svg PUBLIC "-//W3C//DTD SVG 1.1//EN" "http://www.w3.org/Graphics/SVG/1.1/DTD/svg11.dtd"><svg class="icon" width="256px" height="256.00px" viewBox="0 0 1024 1024" version="1.1" xmlns="http://www.w3.org/2000/svg"><path d="M650.666667 245.333333c113.066667 113.066667 113.066667 294.4 0 407.466667-113.066667 113.066667-294.4 113.066667-407.466667 0-113.066667-113.066667-113.066667-294.4 0-407.466667 113.066667-113.066667 296.533333-113.066667 407.466667 0z m-44.8 44.8c-87.466667-87.466667-228.266667-87.466667-315.733334 0-87.466667 87.466667-87.466667 228.266667 0 315.733334 87.466667 87.466667 228.266667 87.466667 315.733334 0 87.466667-87.466667 87.466667-228.266667 0-315.733334z" fill="#2864F0" /><path d="M614.4 661.333333l179.2 179.2c8.533333 8.533333 21.333333 8.533333 29.866667 0l14.933333-14.933333c8.533333-8.533333 8.533333-21.333333 0-29.866667L661.333333 614.4 614.4 661.333333z" fill="#2864F0" /></svg>