<?xml version="1.0" standalone="no"?><!DOCTYPE svg PUBLIC "-//W3C//DTD SVG 1.1//EN" "http://www.w3.org/Graphics/SVG/1.1/DTD/svg11.dtd"><svg t="1763963633810" class="icon" viewBox="0 0 1024 1024" version="1.1" xmlns="http://www.w3.org/2000/svg" p-id="2144" xmlns:xlink="http://www.w3.org/1999/xlink" width="200" height="200"><path d="M967.552 810.88l-53.12-7.424s-11.136-22.272-23.424-49.408c-13.568-27.136-34.56-27.136-46.976 0l-23.424 49.408s-23.424 3.712-53.12 8.704c-28.416 4.992-35.84 24.704-23.296 45.696l38.272 38.272s4.736 24.704-0.256 54.272c-4.992 29.696 12.288 41.984 38.272 28.416l46.976-25.984s20.992 11.136 46.976 24.704 43.264 1.28 38.272-28.416l-9.856-54.272 38.272-38.272c22.272-20.992 14.848-41.984-13.568-45.696z" fill="#ffffff" p-id="2145"></path><path d="M512 18.048C239.104 18.048 18.048 239.104 18.048 512S239.104 1005.952 512 1005.952c86.4 0 152.192-12.544 222.592-50.816 2.432-18.56 4.992-29.696 4.992-29.696l-11.136-11.136C661.76 953.856 595.968 967.68 512 967.68 260.096 967.68 56.32 763.904 56.32 512S260.096 56.32 512 56.32s455.68 203.776 455.68 455.68c0 80.256-11.392 125.44-48.384 190.848 9.728 20.992 17.024 35.328 19.712 40.704 48.128-76.544 66.944-135.296 66.944-231.68 0-272.768-221.056-493.824-493.952-493.824z" fill="#ffffff" p-id="2146"></path><path d="M512 1024c-69.12 0-136.192-13.568-199.296-40.192-60.928-25.728-115.712-62.72-162.688-109.696s-83.968-101.76-109.696-162.688C13.568 648.192 0 581.12 0 512s13.568-136.192 40.192-199.296c25.728-60.928 62.72-115.712 109.696-162.688s101.76-83.968 162.688-109.696C375.808 13.568 442.88 0 512 0s136.192 13.568 199.296 40.192c60.928 25.728 115.712 62.72 162.688 109.696s83.968 101.76 109.696 162.688C1010.432 375.808 1024 442.88 1024 512c0 95.872-10.496 158.72-62.464 241.28l-14.72 18.816-18.176-20.608c-3.584-7.296-17.28-22.4-25.856-40.96l-3.968-8.448 4.608-8.064c36.48-64.384 46.08-106.752 46.08-182.016 0-241.28-196.224-437.504-437.504-437.504S74.496 270.72 74.496 512 270.72 949.504 512 949.504c78.336 0 132.096-11.264 198.784-50.816l12.032-7.168 28.032 28.032-2.176 9.728c0 0.128-2.304 10.752-4.608 28.16l-1.28 9.088 0.384 4.352C666.752 1012.608 598.528 1024 512 1024z" fill="#ffffff" p-id="2147"></path><path d="M741.632 576.256H281.088V723.2h-51.84v48.128h565.504v-46.976h-51.84V576.256h-1.28zM419.456 723.2h-74.112v-97.536h74.112V723.2z m127.104 0h-74.112v-97.536H546.56V723.2z m130.944 0h-74.112v-97.536h74.112V723.2zM497.152 552.704c7.424 4.992 13.568 8.704 16 12.288 28.416-38.272 45.696-71.68 49.408-99.968h139.52v9.856c1.28 22.272-9.856 32.128-35.84 30.848h-71.68c4.992 14.848 8.704 29.696 12.288 45.696h85.248c46.976 0 69.12-24.704 66.688-74.112V246.528h-243.2v116.096c3.712 74.112-14.848 129.664-51.84 166.656 6.272 3.712 17.408 12.416 33.408 23.424z m76.544-261.76h130.944v48.128H573.696v-48.128z m-2.432 111.104c1.28-9.856 2.432-17.28 2.432-23.424h130.944v45.696H571.264v-22.272z m-112.384-149.376H260.096v275.328h200.064V252.672h-1.28z m-54.272 228.48h-87.68v-71.68h87.68v71.68z m0-113.664h-87.68v-69.12h87.68v69.12z" fill="#ffffff" p-id="2148"></path></svg>