<?xml version="1.0" standalone="no"?><!DOCTYPE svg PUBLIC "-//W3C//DTD SVG 1.1//EN" "http://www.w3.org/Graphics/SVG/1.1/DTD/svg11.dtd"><svg class="icon" width="256px" height="256.00px" viewBox="0 0 1024 1024" version="1.1" xmlns="http://www.w3.org/2000/svg"><path d="M231.339589 1004.417627h561.320822c50.719563 0 91.952013-41.23245 91.952013-91.952014V387.390426h25.907115c50.719563 0 91.952013-41.23245 91.952013-91.952013V111.534387c0-50.719563-41.23245-91.952013-91.952013-91.952014H113.480461c-50.719563 0-91.952013 41.23245-91.952013 91.952014v183.904026c0 50.719563 41.23245 91.952013 91.952013 91.952013h25.907115v525.075187c0 50.719563 41.23245 91.952013 91.952013 91.952014z m591.971493-91.952014c0 16.906521-13.74415 30.650671-30.650671 30.650672H231.339589c-16.906521 0-30.650671-13.74415-30.650671-30.650672V234.137071h622.622164v678.328542zM113.480461 326.089084c-16.906521 0-30.650671-13.74415-30.650671-30.650671V111.534387c0-16.906521 13.74415-30.650671 30.650671-30.650672h796.917448c16.906521 0 30.650671 13.74415 30.650672 30.650672v183.904026c0 16.906521-13.74415 30.650671-30.650672 30.650671H884.612424v-92.92505c14.595558-2.432593 25.907115-14.473928 25.907115-29.677634 0-16.906521-13.74415-30.650671-30.650671-30.650671H144.131132c-16.906521 0-30.650671 13.74415-30.650671 30.650671 0 15.203706 11.311557 27.245041 25.907115 29.677634v92.92505H113.480461z" fill="#2c2c2c" /><path d="M458.057251 535.778596h-52.057489c-16.906521 0-30.650671 13.74415-30.650671 30.650671 0 16.906521 13.74415 30.650671 30.650671 30.650671h76.383419V645.853427H405.391614c-18.244447 0-33.083264 14.838817-33.083264 33.083264s14.838817 33.083264 33.083264 33.083264h76.991567V778.429742c0 16.906521 13.74415 30.650671 30.650671 30.650671 16.906521 0 30.650671-13.74415 30.650671-30.650671v-66.409787h76.261789c18.244447 0 33.083264-14.838817 33.083264-33.083264S638.190759 645.853427 619.946312 645.853427h-76.261789v-48.773489h76.869937c16.906521 0 30.650671-13.74415 30.650671-30.650671 0-16.906521-13.74415-30.650671-30.650671-30.650671H565.942749l97.668606-97.668607c11.919705-11.919705 11.919705-31.380449 0-43.300154s-31.380449-11.919705-43.300154 0l-108.250386 108.250386-108.250386-108.250386c-11.919705-11.919705-31.380449-11.919705-43.300155 0s-11.919705 31.380449 0 43.300154l97.546977 97.668607z" fill="#2c2c2c" /></svg>